# xmcd
#
# Track frame offsets:
#	150
#	19398
#	32415
#	55190
#	73705
#	86890
#	106353
#	148165
#	167168
#	194085
#	209673
#	226890
#	240760
#
# Disc length: 3650 seconds
#
# Revision: 1
# Processed by: cddbd v1.5.1PL2 Copyright (c) Steve Scherf et al.
# Submitted via: audiograbber 1.83.01
#
DISCID=ba0e400d
DTITLE=Spencers - Live In Tortola
DYEAR=1991
DGENRE=Southern Gospel
TTITLE0=Plan To Meet Me In Heaven
TTITLE1=They Could Be Thinking About Calling Me Home
TTITLE2=Heaven On The Horizon
TTITLE3=Just For A Day
TTITLE4=It Takes A Miracle
TTITLE5=The Model Church
TTITLE6=Coming Soon
TTITLE7=Looking At Calvary
TTITLE8=He Was Taken Up
TTITLE9=You Can Tell
TTITLE10=Let's Pray Down A Burden
TTITLE11=Let's Get Ready
TTITLE12=Together In His Love
EXTD=
EXTT0=
EXTT1=
EXTT2=
EXTT3=
EXTT4=
EXTT5=
EXTT6=
EXTT7=
EXTT8=
EXTT9=
EXTT10=
EXTT11=
EXTT12=
PLAYORDER=
